<svg width="24" height="24" viewBox="0 0 24 24" fill="none" xmlns="http://www.w3.org/2000/svg">
<path d="M20.04 3C20.897 2.99995 21.7217 3.3274 22.3452 3.91536C22.9688 4.50331 23.3441 5.30732 23.3944 6.16288L23.4 6.36V8.39504C23.3975 8.69753 23.3159 8.99411 23.1635 9.2554C23.011 9.51668 22.793 9.73359 22.5309 9.88464L22.411 9.9496C22.0487 10.1275 21.7411 10.3999 21.5209 10.7382C21.3006 11.0765 21.1759 11.468 21.1598 11.8713C21.1437 12.2746 21.237 12.6748 21.4296 13.0295C21.6223 13.3842 21.9072 13.6803 22.2542 13.8864L22.411 13.9704C22.896 14.2101 23.3294 14.7051 23.3922 15.3592L23.4 15.525V17.56C23.4 18.417 23.0726 19.2417 22.4846 19.8652C21.8967 20.4888 21.0927 20.8641 20.2371 20.9144L20.04 20.92H4.36C3.50296 20.92 2.6783 20.5926 2.05475 20.0046C1.43119 19.4167 1.05588 18.6127 1.0056 17.7571L1 17.56V15.525C1 14.8462 1.39424 14.3176 1.86912 14.0354L1.98896 13.9704C2.35132 13.7925 2.65888 13.5201 2.87913 13.1818C3.09938 12.8435 3.22413 12.452 3.2402 12.0487C3.25626 11.6454 3.16304 11.2452 2.97039 10.8905C2.77774 10.5358 2.49282 10.2397 2.14576 10.0336L1.98896 9.9496C1.504 9.70992 1.07056 9.21488 1.00784 8.5608L1 8.39616V6.36C0.999952 5.50296 1.3274 4.6783 1.91536 4.05475C2.50331 3.43119 3.30732 3.05588 4.16288 3.0056L4.36 3H20.04ZM20.04 5.24H4.36C4.08567 5.24004 3.8209 5.34075 3.6159 5.52304C3.4109 5.70533 3.27994 5.95652 3.24784 6.22896L3.24 6.36V8.0792C3.90355 8.462 4.45785 9.00857 4.84995 9.66666C5.24205 10.3248 5.45885 11.0724 5.47963 11.8382C5.50042 12.604 5.32449 13.3623 4.96867 14.0407C4.61284 14.7191 4.089 15.2949 3.4472 15.7131L3.24 15.8408V17.56C3.24004 17.8343 3.34075 18.0991 3.52304 18.3041C3.70533 18.5091 3.95652 18.6401 4.22896 18.6722L4.36 18.68H20.04C20.3143 18.68 20.5791 18.5792 20.7841 18.397C20.9891 18.2147 21.1201 17.9635 21.1522 17.691L21.16 17.56V15.8408C20.4964 15.458 19.9421 14.9114 19.55 14.2533C19.1579 13.5952 18.9411 12.8476 18.9204 12.0818C18.8996 11.316 19.0755 10.5577 19.4313 9.87934C19.7871 9.20094 20.311 8.62511 20.9528 8.20688L21.16 8.0792V6.36C21.16 6.08567 21.0592 5.8209 20.877 5.6159C20.6947 5.4109 20.4435 5.27994 20.171 5.24784L20.04 5.24ZM9.96 8.6C10.2343 8.60003 10.4991 8.70075 10.7041 8.88304C10.9091 9.06533 11.0401 9.31652 11.0722 9.58896L11.08 9.72V14.2C11.0797 14.4855 10.9704 14.76 10.7744 14.9676C10.5784 15.1752 10.3106 15.3001 10.0256 15.3168C9.74066 15.3336 9.46005 15.2408 9.24115 15.0576C9.02224 14.8744 8.88155 14.6145 8.84784 14.331L8.84 14.2V9.72C8.84 9.42296 8.958 9.13808 9.16804 8.92804C9.37808 8.718 9.66295 8.6 9.96 8.6Z" fill="currentColor"/>
</svg>
