<svg width="35" height="35" viewBox="0 0 35 35" fill="none" xmlns="http://www.w3.org/2000/svg">
<path d="M16.0833 25.0833H20.3333V27.9167C20.3333 28.2924 20.4826 28.6527 20.7483 28.9184C21.014 29.1841 21.3743 29.3333 21.75 29.3333H24.5833C24.9591 29.3333 25.3194 29.1841 25.5851 28.9184C25.8508 28.6527 26 28.2924 26 27.9167V23.6667C26.6599 23.447 27.2596 23.0765 27.7514 22.5847C28.2432 22.0929 28.6136 21.4932 28.8333 20.8333H30.25C30.6257 20.8333 30.9861 20.6841 31.2517 20.4184C31.5174 20.1527 31.6667 19.7924 31.6667 19.4167V16.5833C31.6667 16.2076 31.5174 15.8473 31.2517 15.5816C30.9861 15.3159 30.6257 15.1667 30.25 15.1667H28.8333C28.8333 14.067 28.5773 12.9825 28.0855 11.9989C27.5938 11.0153 26.8797 10.1598 26 9.5V5.25C25.1203 5.25 24.2526 5.45482 23.4658 5.84825C22.679 6.24167 21.9945 6.81289 21.4667 7.51667L21.0417 8.08333H16.0833C13.829 8.08333 11.667 8.97887 10.0729 10.5729C8.47888 12.167 7.58334 14.329 7.58334 16.5833V18C7.58334 19.0997 7.83937 20.1842 8.33115 21.1678C8.82293 22.1513 9.53695 23.0069 10.4167 23.6667V27.9167C10.4167 28.2924 10.5659 28.6527 10.8316 28.9184C11.0973 29.1841 11.4576 29.3333 11.8333 29.3333H14.6667C15.0424 29.3333 15.4027 29.1841 15.6684 28.9184C15.9341 28.6527 16.0833 28.2924 16.0833 27.9167V25.0833Z" fill="#F6764E" stroke="#F6764E" stroke-width="2" stroke-linecap="round" stroke-linejoin="round"/>
<path d="M23.1667 15.1667H23.1804" stroke="#F6764E" stroke-width="2" stroke-linecap="round" stroke-linejoin="round"/>
<path d="M3.33334 12.3333V13.75C3.33334 14.5014 3.63185 15.2221 4.16321 15.7534C4.69456 16.2848 5.41523 16.5833 6.16668 16.5833H7.58334" stroke="#F6764E" stroke-width="2" stroke-linecap="round" stroke-linejoin="round"/>
</svg>
