<svg width="257" height="127" viewBox="0 0 257 127" fill="none" xmlns="http://www.w3.org/2000/svg">
<path d="M245.017 72.82C249.536 70.0415 253.182 66.4462 255.144 61.4182C255.616 60.2101 255.747 58.868 256.037 57.5874C256.142 57.1201 256.289 56.6619 256.353 56.1855C256.324 55.8088 256.296 55.4429 256.267 55.0661C255.906 53.6334 255.747 52.1247 255.224 50.7518C253.643 46.6022 250.64 43.9125 246.34 42.7841C241.692 41.5633 237.215 42.324 232.988 44.4396C226.778 47.5458 222.618 52.592 219.68 58.7665C218.03 62.2351 216.865 65.8521 216.197 69.6231C215.956 70.9798 215.938 72.3744 215.744 73.7419C215.669 74.2617 215.513 74.8558 215.186 75.2434C210.379 80.9634 204.608 85.3031 197.163 86.868C192.072 87.9385 187.149 85.7324 185.399 80.3367C185.23 79.8168 185.098 79.2861 184.938 78.7192C186.615 78.3515 188.225 78.0346 189.818 77.6451C194.615 76.4733 199.205 74.7834 203.305 71.9705C207.032 69.413 210.11 66.2289 211.925 62.0449C212.932 59.7229 213.353 57.2487 213.087 54.6532C212.872 52.5684 212.386 50.5996 211.346 48.8029C209.533 45.6712 206.771 43.7114 203.308 42.7696C200.357 41.9672 197.403 42.1393 194.425 42.8275C190.441 43.7477 187.096 45.7763 184.116 48.446C181.359 50.9166 179.12 53.8997 177.412 57.1817C175.595 60.6756 174.169 64.3162 173.418 68.185C173.1 69.8224 172.795 71.4942 172.795 73.1496C172.795 74.6693 172.276 75.852 171.432 77.0221C169.831 79.2445 168.263 81.4959 166.14 83.2636C164.882 84.3123 163.634 85.3919 161.891 85.6563C160.583 85.8555 159.607 85.5277 159.066 84.2979C158.333 82.6279 158.195 80.8438 158.322 79.0344C158.654 74.2871 159.358 69.5923 160.374 64.9465C161.211 61.1121 162.106 57.2904 163.017 53.4741C163.616 50.9673 164.282 48.475 164.955 45.9846C165.024 45.7292 165.294 45.4828 165.556 45.4376C169.002 44.8453 172.458 44.2983 175.908 43.7169C177.095 43.5176 178.276 43.2713 179.448 43.0014C179.672 42.9507 179.976 42.7189 180.024 42.5178C180.915 38.8048 181.773 35.0827 182.635 31.3605C182.646 31.3153 182.599 31.2573 182.574 31.1903C177.849 32.0361 173.124 32.882 168.127 33.7767C169.975 27.8033 171.746 22.0761 173.545 16.262C173.198 16.2457 172.915 16.2203 172.632 16.2203C169.236 16.2185 165.839 16.233 162.443 16.2095C161.828 16.2058 161.525 16.3544 161.325 16.9937C160.082 20.9749 158.759 24.9306 157.51 28.9099C156.89 30.8896 156.345 32.8947 155.823 34.9033C155.657 35.5373 155.474 35.8524 154.719 35.9412C150.785 36.4049 146.865 36.9863 142.934 37.4753L140.523 48.8735C143.534 48.571 146.531 48.1381 149.532 47.7632C150.491 47.6437 151.449 47.5223 152.547 47.3865C152.218 49.2919 151.717 51.009 150.634 52.5775C147.694 56.8303 143.995 60.1358 139.257 62.3021C138.384 62.7006 137.502 63.0429 136.612 63.3309V63.2838C134.845 64.0608 132.995 64.6332 131.054 64.9374C129.489 65.1838 127.839 64.9338 126.233 64.827C125.945 64.807 125.643 64.414 125.418 64.1369C124.493 62.9958 123.644 61.7877 122.662 60.6991C122.17 60.1539 121.451 59.8098 120.963 59.4657C122.313 58.0402 123.609 56.5912 124.992 55.2273C130.17 50.1269 134.631 44.4704 138.259 38.1763C141.304 32.891 143.547 27.2889 144.665 21.2791C145.494 16.8199 145.752 12.3606 144.286 7.95923C142.966 3.99985 140.485 1.19604 136.284 0.279546C133.099 -0.415973 130.09 0.214341 127.275 1.85895C123.7 3.94913 121.201 7.04999 119.077 10.495C115.188 16.8017 112.555 23.6718 110.393 30.6994C108.154 37.977 106.15 45.3325 104.25 52.7061C102.956 57.7251 101.853 62.8074 100.974 67.9151C100.326 71.688 98.6222 74.912 96.6458 78.0454C95.5278 79.8186 94.2665 82.0918 93.2357 83.9773C92.9834 84.4391 92.6949 84.8793 92.3736 85.2977C89.2049 89.4255 85.4554 93.4736 83.3339 94.468C82.8166 94.7107 82.1669 94.6002 81.8039 94.4191C81.5898 94.3122 81.3974 94.1474 81.2595 94.0569C80.0345 93.2545 80.4301 89.7171 80.6188 88.6847C82.1488 80.3276 86.9726 64.9809 89.2956 57.8645C89.7584 56.6419 90.1668 55.4175 90.5152 54.2076L78.5372 54.0265V54.0283H78.3575C76.7768 59.5327 74.1543 65.1801 68.5573 67.9731C63.4358 70.5288 58.2163 71.2859 54.0839 71.8039C54.0512 71.1754 54.024 70.5632 54.0095 69.9709C53.7264 59.194 53.6774 47.899 55.1311 38.1799C60.8551 39.4061 65.875 39.6035 70.4139 38.7848C76.2741 37.7289 81.2105 34.9541 85.0816 30.5382C88.7276 26.3796 90.4934 21.3534 90.0506 16.3906C89.6695 12.1142 87.6605 8.32148 84.3901 5.70966C77.7895 0.438935 68.1944 0.701566 59.9459 6.37983C54.2763 10.2831 50.113 16.1624 47.349 24.2152C45.5759 23.0234 43.5106 22.0308 41.193 21.2719C36.9299 19.8754 31.95 19.3357 27.1733 19.7505C21.9701 20.2015 17.2914 21.7247 13.6418 24.1536C6.51848 28.8954 1.82709 35.6949 0.429653 43.3039C-0.717333 49.5527 0.464135 55.8921 3.59112 60.2608C6.78345 64.7201 11.1463 67.3536 16.56 68.0836C17.5981 68.223 18.6653 68.2937 19.7741 68.2937C22.854 68.2937 26.2477 67.7485 30.2132 66.6291C34.7394 65.3522 39.1894 62.8382 43.0369 59.5363C43.0423 63.2113 43.1186 66.8157 43.2093 70.2589C43.2184 70.5759 43.2275 70.8946 43.2402 71.2134C36.4871 71.4869 26.4655 73.2619 17.4076 80.2207C15.482 81.7005 11.7652 84.8322 8.52026 89.1755C4.22632 94.9226 2.27354 100.74 2.71455 106.466C3.20274 112.798 6.74896 118.137 12.7017 121.501C16.58 123.692 21.1244 124.806 25.5472 124.806C29.1624 124.806 32.6977 124.062 35.7194 122.553C43.4997 118.672 49.2727 110.619 52.8807 98.6176C54.4814 93.2907 54.8062 87.953 54.71 83.0481C55.9459 82.8941 57.3053 82.7112 58.7553 82.4667C62.8678 81.7712 66.9693 80.708 70.717 79.0507C70.0274 81.7114 69.4339 84.2779 69.0147 86.5692C68.4085 89.8783 68.6027 95.3211 71.1417 99.7768C73.4465 103.818 76.5626 104.301 78.4338 105.048C79.51 105.477 80.6787 105.689 81.9146 105.689C85.1324 105.689 89.978 103.166 92.8745 99.6735C94.5024 97.7101 95.889 95.6598 97.1485 93.4012C97.0142 95.3121 96.8799 97.0907 96.7656 98.8675C96.5442 102.345 96.5169 105.814 96.9216 109.289C97.2901 112.463 97.889 115.567 99.2283 118.472C100.902 122.097 103.455 124.832 107.448 125.92C111.793 127.107 115.758 126.304 119.346 123.582C123.288 120.588 125.455 116.408 127.112 111.918C128.426 108.358 129.15 104.649 129.749 100.902C130.44 96.5672 130.605 92.2112 130.387 87.857C130.217 84.4373 129.669 81.0358 129.29 77.6252C129.244 77.2231 129.208 76.821 129.162 76.3537C131.752 76.1798 134.217 75.6781 136.611 74.8884V74.7417C140.638 73.7546 144.387 71.9741 147.926 69.3424C147.692 70.9761 147.492 72.4052 147.28 73.8343C146.719 77.5944 146.487 81.3582 146.834 85.16C147.064 87.6776 147.632 90.0757 148.837 92.3036C150.643 95.6435 153.376 97.5471 157.224 97.9692C161.068 98.3912 164.418 97.1849 167.581 95.2305C170.59 93.3686 172.989 90.8202 175.292 88.0942C175.986 89.0814 176.626 90.0449 177.32 90.9723C179.837 94.343 183.267 96.3282 187.272 97.395C192.047 98.6683 196.764 98.306 201.455 96.8715C207.167 95.1255 212.063 92.0047 216.538 88.1504C216.956 87.7899 217.306 87.3534 217.738 86.8988C218.428 88.0127 219.027 89.0705 219.709 90.0703C222.578 94.2652 226.595 96.7755 231.54 97.7138C239.378 99.2026 246.264 97.107 252.244 91.9051C253.244 91.0357 254.22 90.1373 255.195 89.2371C255.471 88.9817 255.701 88.6793 255.995 88.3478C253.623 85.8103 251.295 83.3198 249.053 80.9235C247.211 82.3852 245.545 83.8867 243.705 85.1292C240.464 87.3154 236.956 87.8189 233.329 86.0946C230.585 84.7887 228.928 82.5609 228.188 79.6357C228.117 79.3532 228.052 79.0706 227.967 78.7192C229.27 78.4349 230.553 78.1632 231.832 77.8752C236.475 76.8337 240.943 75.3213 245.015 72.8182L245.017 72.82ZM186.109 64.4792C187.481 60.8513 189.499 57.6272 192.559 55.1947C194.499 53.6534 196.686 52.5702 199.321 53.2476C200.443 53.5356 201.187 54.2221 201.453 55.3596C202.038 57.8446 201.13 59.8732 199.386 61.5613C196.107 64.7382 192.062 66.4643 187.693 67.5438C186.88 67.7449 186.062 67.9242 185.245 68.1126C185.167 68.0347 185.089 67.9586 185.013 67.8807C185.376 66.7451 185.688 65.5913 186.109 64.4792ZM66.0783 15.2622C70.3758 12.3044 74.8059 11.8733 77.6407 14.1356C78.853 15.1028 79.2069 16.4178 79.2886 17.3505C79.4646 19.3266 78.6116 21.549 76.9492 23.4454C74.2705 26.501 69.3777 30.1543 57.5811 27.6837C59.4305 22.3097 62.1437 17.9682 66.0783 15.2604V15.2622ZM27.2731 56.2579C17.5673 58.9965 14.3786 56.7886 12.3804 53.9957C11.3042 52.4924 10.3115 49.2973 11.0538 45.2474C11.6654 41.9147 13.6508 37.1076 19.629 33.1283C22.3095 31.3461 26.3112 30.3988 30.4001 30.3988C32.9391 30.3988 35.5125 30.7646 37.8228 31.5199C40.8264 32.5034 42.9716 34.0521 43.5578 35.6641C44.2801 37.6474 43.7864 40.5562 42.2021 43.6426C39.1876 49.5183 33.1877 54.588 27.2713 56.2561L27.2731 56.2579ZM42.5342 95.5222C40.6667 101.737 37.1296 109.798 30.8883 112.914C27.3602 114.674 21.9483 114.341 18.0228 112.122C16.0954 111.034 13.7452 109.025 13.4839 105.642C13.012 99.5087 18.8504 92.7165 23.9955 88.7644C30.8992 83.4592 38.6794 82.157 43.879 81.9776C44.0478 86.5021 43.8717 91.0683 42.5342 95.5222ZM118.914 96.4332C118.52 101.38 117.74 106.285 115.704 110.867C115.181 112.044 114.379 113.18 113.453 114.073C112.37 115.116 110.9 114.749 110.027 113.506C109.023 112.079 108.722 110.403 108.537 108.752C108.27 106.386 108.056 103.99 108.125 101.617C108.217 98.393 108.549 95.1708 108.871 91.9576C109.156 89.0977 109.502 86.2377 109.94 83.3977C110.468 79.978 111.119 76.5801 111.72 73.1714C111.84 72.4903 111.963 71.8093 112.07 71.2062C113.758 72.3907 115.355 73.4847 116.912 74.633C117.181 74.8323 117.359 75.2434 117.442 75.5912C118.402 79.5705 119.032 83.5987 119.054 87.6976C119.068 90.6101 119.15 93.5352 118.919 96.4314L118.914 96.4332ZM119.061 46.3577C118.596 46.9119 118.088 47.4281 117.598 47.9624C117.506 47.9135 117.413 47.8664 117.322 47.8175C117.787 46.0335 118.206 44.2367 118.723 42.4671C119.932 38.3284 121.119 34.1807 122.444 30.0782C124.045 25.1154 125.968 20.2739 128.674 15.7911C129.246 14.8438 129.979 13.9617 130.772 13.1865C131.941 12.0454 133.348 12.3895 133.598 13.9834C133.868 15.7023 133.961 17.5226 133.71 19.2361C132.674 26.3307 129.678 32.6683 125.569 38.4606C123.6 41.2355 121.25 43.7386 119.061 46.3577ZM227.956 68.2031C228.409 66.736 228.712 65.4899 229.177 64.3089C230.513 60.9074 232.444 57.8863 235.237 55.4791C236.729 54.1913 238.422 53.2205 240.422 53.0665C243.387 52.8401 245.233 54.6061 244.589 57.8047C244.246 59.5037 243.244 60.8458 241.994 62.0159C238.738 65.066 234.689 66.4861 230.495 67.6126C229.761 67.8101 229.017 67.9568 227.954 68.2031H227.956Z" fill="white"/>
<path d="M90.1521 50.2281C94.4621 50.2281 97.956 46.7411 97.956 42.4397C97.956 38.1383 94.4621 34.6514 90.1521 34.6514C85.8422 34.6514 82.3483 38.1383 82.3483 42.4397C82.3483 46.7411 85.8422 50.2281 90.1521 50.2281Z" fill="white"/>
</svg>
